<svg xmlns="http://www.w3.org/2000/svg" width="860" height="1160" viewBox="0 0 860 1160"><rect width="860" height="1160" fill="#0b0e14"/><text x="40" y="52" fill="#e6e8ee" font-family="Inter, Arial, sans-serif" font-size="22" font-weight="600" text-anchor="start">BHE · 移动端设计稿</text><text x="40" y="81" fill="#9aa0ac" font-family="Inter, Arial, sans-serif" font-size="13" font-weight="400" text-anchor="start">桌面版视觉语言 · 移动端操作优化</text><rect x="215" y="118" width="430" height="932" rx="28" fill="#121620" stroke="#31343f" stroke-width="2"/><rect x="228" y="131" width="404" height="906" rx="20" fill="#0b0e14"/><rect x="228" y="131" width="404" height="70" rx="20" fill="#121620" stroke="#121620"/><path d="M252 165l8-8m-8 8l8 8" fill="none" stroke="#e6e8ee" stroke-width="2" stroke-linecap="round"/><text x="278" y="162" fill="#e6e8ee" font-family="Inter, Arial, sans-serif" font-size="14" font-weight="600" text-anchor="start">分析任务</text><text x="278" y="182" fill="#9aa0ac" font-family="Inter, Arial, sans-serif" font-size="11" font-weight="400" text-anchor="start">本地处理</text><circle cx="600" cy="166" r="16" fill="#1a1f2b" stroke="#31343f"/><text x="600" y="171" fill="#9aa0ac" font-family="Inter, Arial, sans-serif" font-size="14" font-weight="600" text-anchor="middle">•••</text><text x="430" y="247" fill="#e6e8ee" font-family="Inter, Arial, sans-serif" font-size="22" font-weight="600" text-anchor="middle">正在分析视频</text><text x="430" y="276" fill="#9aa0ac" font-family="Inter, Arial, sans-serif" font-size="12" font-weight="400" text-anchor="middle">请保持应用打开，结果会自动保存</text><rect x="240" y="312" width="380" height="84" rx="9" fill="#121620" stroke="#31343f"/><text x="256" y="339" fill="#e6e8ee" font-family="Inter, Arial, sans-serif" font-size="13" font-weight="600" text-anchor="start">精筛候选</text><text x="604" y="339" fill="#ff6b2c" font-family="Inter, Arial, sans-serif" font-size="18" font-weight="600" text-anchor="end">62%</text><rect x="256" y="356" width="348" height="8" rx="4" fill="#23242f" stroke="#23242f"/><rect x="256" y="356" width="216" height="8" rx="4" fill="#ff6b2c" stroke="#ff6b2c"/><text x="256" y="382" fill="#9aa0ac" font-family="Inter, Arial, sans-serif" font-size="11" font-weight="400" text-anchor="start">已用 07:56 · 预计剩余 04:12</text><rect x="244" y="430" width="372" height="58" rx="8" fill="#121620" stroke="#31343f"/><circle cx="270" cy="459" r="13" fill="#3fb950"/><text x="270" y="464" fill="#0b0e14" font-family="Inter, Arial, sans-serif" font-size="13" font-weight="700" text-anchor="middle">✓</text><text x="296" y="454" fill="#e6e8ee" font-family="Inter, Arial, sans-serif" font-size="13" font-weight="600" text-anchor="start">检查视频</text><text x="296" y="473" fill="#9aa0ac" font-family="Inter, Arial, sans-serif" font-size="10" font-weight="400" text-anchor="start">已完成</text><rect x="244" y="488" width="372" height="58" rx="8" fill="#121620" stroke="#31343f"/><circle cx="270" cy="517" r="13" fill="#3fb950"/><text x="270" y="522" fill="#0b0e14" font-family="Inter, Arial, sans-serif" font-size="13" font-weight="700" text-anchor="middle">✓</text><text x="296" y="512" fill="#e6e8ee" font-family="Inter, Arial, sans-serif" font-size="13" font-weight="600" text-anchor="start">加载本地模型</text><text x="296" y="531" fill="#9aa0ac" font-family="Inter, Arial, sans-serif" font-size="10" font-weight="400" text-anchor="start">已完成</text><rect x="244" y="546" width="372" height="58" rx="8" fill="#121620" stroke="#31343f"/><circle cx="270" cy="575" r="13" fill="#3fb950"/><text x="270" y="580" fill="#0b0e14" font-family="Inter, Arial, sans-serif" font-size="13" font-weight="700" text-anchor="middle">✓</text><text x="296" y="570" fill="#e6e8ee" font-family="Inter, Arial, sans-serif" font-size="13" font-weight="600" text-anchor="start">扫描视频</text><text x="296" y="589" fill="#9aa0ac" font-family="Inter, Arial, sans-serif" font-size="10" font-weight="400" text-anchor="start">已完成</text><rect x="244" y="604" width="372" height="58" rx="8" fill="#121620" stroke="#31343f"/><circle cx="270" cy="633" r="13" fill="#ff6b2c"/><text x="270" y="638" fill="#0b0e14" font-family="Inter, Arial, sans-serif" font-size="13" font-weight="700" text-anchor="middle">•</text><text x="296" y="628" fill="#e6e8ee" font-family="Inter, Arial, sans-serif" font-size="13" font-weight="600" text-anchor="start">生成候选</text><text x="296" y="647" fill="#9aa0ac" font-family="Inter, Arial, sans-serif" font-size="10" font-weight="400" text-anchor="start">进行中</text><rect x="244" y="662" width="372" height="58" rx="8" fill="#121620" stroke="#31343f"/><circle cx="270" cy="691" r="13" fill="#6b7280"/><text x="270" y="696" fill="#0b0e14" font-family="Inter, Arial, sans-serif" font-size="13" font-weight="700" text-anchor="middle">•</text><text x="296" y="686" fill="#e6e8ee" font-family="Inter, Arial, sans-serif" font-size="13" font-weight="600" text-anchor="start">精筛候选</text><text x="296" y="705" fill="#9aa0ac" font-family="Inter, Arial, sans-serif" font-size="10" font-weight="400" text-anchor="start">等待</text><rect x="244" y="720" width="372" height="58" rx="8" fill="#121620" stroke="#31343f"/><circle cx="270" cy="749" r="13" fill="#6b7280"/><text x="270" y="754" fill="#0b0e14" font-family="Inter, Arial, sans-serif" font-size="13" font-weight="700" text-anchor="middle">•</text><text x="296" y="744" fill="#e6e8ee" font-family="Inter, Arial, sans-serif" font-size="13" font-weight="600" text-anchor="start">保存结果</text><text x="296" y="763" fill="#9aa0ac" font-family="Inter, Arial, sans-serif" font-size="10" font-weight="400" text-anchor="start">等待</text><rect x="240" y="812" width="380" height="68" rx="9" fill="#121620" stroke="#31343f"/><text x="256" y="840" fill="#9aa0ac" font-family="Inter, Arial, sans-serif" font-size="11" font-weight="400" text-anchor="start">已处理帧</text><text x="604" y="840" fill="#e6e8ee" font-family="Inter, Arial, sans-serif" font-size="14" font-weight="600" text-anchor="end">1,864 / 3,010</text><text x="256" y="862" fill="#9aa0ac" font-family="Inter, Arial, sans-serif" font-size="11" font-weight="400" text-anchor="start">当前模式：标准分析</text><rect x="240" y="920" width="180" height="42" rx="8" fill="#1a1f2b" stroke="#31343f"/><text x="330.0" y="947" fill="#e6e8ee" font-family="Inter, Arial, sans-serif" font-size="13" font-weight="600" text-anchor="middle">后台运行</text><rect x="432" y="920" width="188" height="42" rx="8" fill="#1a1f2b" stroke="#31343f"/><text x="526.0" y="947" fill="#e6e8ee" font-family="Inter, Arial, sans-serif" font-size="13" font-weight="600" text-anchor="middle">取消分析</text><text x="430" y="1016" fill="#6b7280" font-family="Inter, Arial, sans-serif" font-size="10" font-weight="400" text-anchor="middle">进度每秒更新一次</text></svg>