<svg xmlns="http://www.w3.org/2000/svg" width="860" height="1160" viewBox="0 0 860 1160"><rect width="860" height="1160" fill="#0b0e14"/><text x="40" y="52" fill="#e6e8ee" font-family="Inter, Arial, sans-serif" font-size="22" font-weight="600" text-anchor="start">BHE · 移动端设计稿</text><text x="40" y="81" fill="#9aa0ac" font-family="Inter, Arial, sans-serif" font-size="13" font-weight="400" text-anchor="start">桌面版视觉语言 · 移动端操作优化</text><rect x="215" y="118" width="430" height="932" rx="28" fill="#121620" stroke="#31343f" stroke-width="2"/><rect x="228" y="131" width="404" height="906" rx="20" fill="#0b0e14"/><rect x="228" y="131" width="404" height="70" rx="20" fill="#121620" stroke="#121620"/><path d="M252 165l8-8m-8 8l8 8" fill="none" stroke="#e6e8ee" stroke-width="2" stroke-linecap="round"/><text x="278" y="162" fill="#e6e8ee" font-family="Inter, Arial, sans-serif" font-size="14" font-weight="600" text-anchor="start">暂无候选</text><text x="278" y="182" fill="#9aa0ac" font-family="Inter, Arial, sans-serif" font-size="11" font-weight="400" text-anchor="start">项目状态</text><circle cx="600" cy="166" r="16" fill="#1a1f2b" stroke="#31343f"/><text x="600" y="171" fill="#9aa0ac" font-family="Inter, Arial, sans-serif" font-size="14" font-weight="600" text-anchor="middle">•••</text><rect x="240" y="252" width="380" height="300" rx="12" fill="#121620" stroke="#31343f"/><text x="430" y="334" fill="#ff6b2c" font-family="Inter, Arial, sans-serif" font-size="58" font-weight="400" text-anchor="middle">○</text><text x="430" y="390" fill="#e6e8ee" font-family="Inter, Arial, sans-serif" font-size="19" font-weight="600" text-anchor="middle">还没有分析结果</text><text x="430" y="420" fill="#9aa0ac" font-family="Inter, Arial, sans-serif" font-size="12" font-weight="400" text-anchor="middle">先导入视频并完成检测区域配置。</text><rect x="330" y="458" width="200" height="42" rx="8" fill="#ff6b2c" stroke="#ff6b2c"/><text x="430.0" y="485" fill="#fff" font-family="Inter, Arial, sans-serif" font-size="13" font-weight="600" text-anchor="middle">去导入视频</text><rect x="240" y="588" width="380" height="120" rx="9" fill="#121620" stroke="#31343f"/><text x="256" y="620" fill="#e6e8ee" font-family="Inter, Arial, sans-serif" font-size="12" font-weight="600" text-anchor="start">如果刚刚分析完成但没有候选</text><text x="256" y="647" fill="#9aa0ac" font-family="Inter, Arial, sans-serif" font-size="11" font-weight="400" text-anchor="start">可以检查分析范围和篮筐区域后重新分析。</text><text x="256" y="675" fill="#9aa0ac" font-family="Inter, Arial, sans-serif" font-size="11" font-weight="400" text-anchor="start">原视频不会被删除。</text><rect x="240" y="760" width="180" height="42" rx="8" fill="#1a1f2b" stroke="#31343f"/><text x="330.0" y="787" fill="#e6e8ee" font-family="Inter, Arial, sans-serif" font-size="13" font-weight="600" text-anchor="middle">检查配置</text><rect x="432" y="760" width="188" height="42" rx="8" fill="#ff6b2c" stroke="#ff6b2c"/><text x="526.0" y="787" fill="#fff" font-family="Inter, Arial, sans-serif" font-size="13" font-weight="600" text-anchor="middle">重新分析</text><text x="430" y="1016" fill="#6b7280" font-family="Inter, Arial, sans-serif" font-size="10" font-weight="400" text-anchor="middle">没有数据也能明确下一步</text></svg>