<svg xmlns="http://www.w3.org/2000/svg" width="860" height="1160" viewBox="0 0 860 1160"><rect width="860" height="1160" fill="#0b0e14"/><text x="40" y="52" fill="#e6e8ee" font-family="Inter, Arial, sans-serif" font-size="22" font-weight="600" text-anchor="start">BHE · 移动端设计稿</text><text x="40" y="81" fill="#9aa0ac" font-family="Inter, Arial, sans-serif" font-size="13" font-weight="400" text-anchor="start">桌面版视觉语言 · 移动端操作优化</text><rect x="215" y="118" width="430" height="932" rx="28" fill="#121620" stroke="#31343f" stroke-width="2"/><rect x="228" y="131" width="404" height="906" rx="20" fill="#0b0e14"/><rect x="228" y="131" width="404" height="70" rx="20" fill="#121620" stroke="#121620"/><path d="M252 165l8-8m-8 8l8 8" fill="none" stroke="#e6e8ee" stroke-width="2" stroke-linecap="round"/><text x="278" y="162" fill="#e6e8ee" font-family="Inter, Arial, sans-serif" font-size="14" font-weight="600" text-anchor="start">导入视频</text><text x="278" y="182" fill="#9aa0ac" font-family="Inter, Arial, sans-serif" font-size="11" font-weight="400" text-anchor="start">第 1 / 5 步</text><circle cx="600" cy="166" r="16" fill="#1a1f2b" stroke="#31343f"/><text x="600" y="171" fill="#9aa0ac" font-family="Inter, Arial, sans-serif" font-size="14" font-weight="600" text-anchor="middle">•••</text><rect x="240" y="222" width="380" height="154" rx="10" fill="#121620" stroke="#31343f"/><rect x="256" y="238" width="112" height="122" rx="6" fill="#263537" stroke="#263537"/><line x1="256" y1="330" x2="368" y2="304" stroke="#536464" stroke-width="2"/><text x="312" y="287" fill="#e6e8ee" font-family="Inter, Arial, sans-serif" font-size="28" font-weight="600" text-anchor="middle">▶</text><text x="388" y="260" fill="#e6e8ee" font-family="Inter, Arial, sans-serif" font-size="16" font-weight="600" text-anchor="start">选择原始视频</text><text x="388" y="286" fill="#9aa0ac" font-family="Inter, Arial, sans-serif" font-size="12" font-weight="400" text-anchor="start">比赛_20240512.mp4</text><text x="388" y="312" fill="#9aa0ac" font-family="Inter, Arial, sans-serif" font-size="11" font-weight="400" text-anchor="start">01:28:42 · 1920×1080</text><text x="388" y="336" fill="#e3b341" font-family="Inter, Arial, sans-serif" font-size="11" font-weight="500" text-anchor="start">文件大小 8.4 GB</text><rect x="240" y="395" width="380" height="72" rx="9" fill="#121620" stroke="#31343f"/><text x="256" y="420" fill="#e6e8ee" font-family="Inter, Arial, sans-serif" font-size="12" font-weight="600" text-anchor="start">视频预检</text><text x="256" y="444" fill="#e3b341" font-family="Inter, Arial, sans-serif" font-size="11" font-weight="400" text-anchor="start">预计分析 18–32 分钟 · 建议保持电源充足</text><text x="240" y="510" fill="#e6e8ee" font-family="Inter, Arial, sans-serif" font-size="15" font-weight="600" text-anchor="start">导入设置</text><rect x="244" y="530" width="372" height="58" rx="8" fill="#121620" stroke="#31343f"/><circle cx="270" cy="559" r="13" fill="#3fb950"/><text x="270" y="564" fill="#0b0e14" font-family="Inter, Arial, sans-serif" font-size="13" font-weight="700" text-anchor="middle">✓</text><text x="296" y="554" fill="#e6e8ee" font-family="Inter, Arial, sans-serif" font-size="13" font-weight="600" text-anchor="start">原始视频不会被修改</text><text x="296" y="573" fill="#9aa0ac" font-family="Inter, Arial, sans-serif" font-size="10" font-weight="400" text-anchor="start">仅保存路径和视频指纹</text><rect x="244" y="600" width="372" height="58" rx="8" fill="#121620" stroke="#31343f"/><circle cx="270" cy="629" r="13" fill="#3fb950"/><text x="270" y="634" fill="#0b0e14" font-family="Inter, Arial, sans-serif" font-size="13" font-weight="700" text-anchor="middle">✓</text><text x="296" y="624" fill="#e6e8ee" font-family="Inter, Arial, sans-serif" font-size="13" font-weight="600" text-anchor="start">本地处理</text><text x="296" y="643" fill="#9aa0ac" font-family="Inter, Arial, sans-serif" font-size="10" font-weight="400" text-anchor="start">不会自动上传到云端</text><rect x="240" y="688" width="180" height="42" rx="8" fill="#1a1f2b" stroke="#31343f"/><text x="330.0" y="715" fill="#e6e8ee" font-family="Inter, Arial, sans-serif" font-size="13" font-weight="600" text-anchor="middle">重新选择视频</text><rect x="432" y="688" width="188" height="42" rx="8" fill="#ff6b2c" stroke="#ff6b2c"/><text x="526.0" y="715" fill="#fff" font-family="Inter, Arial, sans-serif" font-size="13" font-weight="600" text-anchor="middle">继续配置</text><rect x="240" y="760" width="380" height="114" rx="9" fill="#121620" stroke="#31343f"/><text x="256" y="790" fill="#9aa0ac" font-family="Inter, Arial, sans-serif" font-size="12" font-weight="600" text-anchor="start">流程</text><text x="256" y="824" fill="#ff6b2c" font-family="Inter, Arial, sans-serif" font-size="13" font-weight="600" text-anchor="start">01 选择视频</text><text x="362" y="824" fill="#6b7280" font-family="Inter, Arial, sans-serif" font-size="13" font-weight="400" text-anchor="start">02 分析范围</text><text x="480" y="824" fill="#6b7280" font-family="Inter, Arial, sans-serif" font-size="13" font-weight="400" text-anchor="start">03 检测区域</text><line x1="256" y1="846" x2="604" y2="846" stroke="#31343f" stroke-width="2"/><text x="430" y="1016" fill="#6b7280" font-family="Inter, Arial, sans-serif" font-size="10" font-weight="400" text-anchor="middle">原始视频只读取，不复制</text></svg>